# xmcd
#
# Track frame offsets: 
#        150
#        25293
#        46765
#        68945
#        97790
#        126840
#        143748
#        165640
#
# Disc length: 2558 seconds
#
# Revision: 0
# Processed by: cddbd v1.5.2PL0 Copyright (c) Steve Scherf et al.
# Submitted via: ExactAudioCopy v0.99pb5
#
DISCID=6209fc08
DTITLE=Rush  - Signals - Warner Bros. 13480 (SHM)  
DYEAR=1900
DGENRE=
TTITLE0=Subdivisions
TTITLE1=The Analog Kid
TTITLE2=Chemistry
TTITLE3=Digital Man
TTITLE4=The Weapon
TTITLE5=New World Man
TTITLE6=Losing It
TTITLE7=Countdown
EXTD=
EXTT0=
EXTT1=
EXTT2=
EXTT3=
EXTT4=
EXTT5=
EXTT6=
EXTT7=
PLAYORDER=
